<?xml version="1.0" encoding="UTF-8"?>
<svg width="81px" height="51px" viewBox="0 0 81 51" version="1.1" xmlns="http://www.w3.org/2000/svg" xmlns:xlink="http://www.w3.org/1999/xlink">
    <!-- Generator: Sketch 57.1 (83088) - https://sketch.com -->
    <title>Ebene_2</title>
    <desc>Created with Sketch.</desc>
    <g id="0.0-Startseite" stroke="none" stroke-width="1" fill="none" fill-rule="evenodd">
        <g id="nxr-challenge-desktop" transform="translate(-144.000000, -1009.000000)" fill="#333333" fill-rule="nonzero">
            <g id="Footer" transform="translate(144.000000, 1009.000000)">
                <g id="slogan">
                    <g id="Ebene_2">
                        <g id="Group">
                            <path d="M8.6,13.3 C8.3,13.9 7.8,14.3 7.3,14.5 C6.7,14.8 6.1,14.9 5.4,14.9 C4.6,14.9 3.9,14.7 3.3,14.4 C2.7,14.1 2.2,13.7 1.8,13.2 C1.4,12.7 1.1,12.1 0.9,11.4 C0.8,10.7 0.7,10 0.7,9.2 C0.7,8.5 0.8,7.8 1,7.1 C1.2,6.4 1.5,5.9 1.9,5.3 C2.3,4.8 2.8,4.4 3.4,4.1 C4,3.8 4.7,3.6 5.5,3.6 C6.1,3.6 6.7,3.7 7.3,4 C7.9,4.3 8.3,4.7 8.6,5.2 L8.6,5.2 L8.6,0 L11.5,0 L11.5,14.6 L8.7,14.6 L8.6,13.3 L8.6,13.3 Z M8.5,8 C8.4,7.6 8.3,7.3 8.1,7 C7.9,6.7 7.6,6.4 7.3,6.2 C7,6 6.6,5.9 6.1,5.9 C5.7,5.9 5.2,6 4.9,6.2 C4.6,6.4 4.3,6.7 4.1,7 C3.9,7.3 3.8,7.7 3.7,8.1 C3.6,8.5 3.6,8.9 3.6,9.3 C3.6,9.7 3.6,10.1 3.7,10.5 C3.8,11 4,11.3 4.2,11.7 C4.4,12.1 4.7,12.3 5,12.5 C5.3,12.7 5.7,12.8 6.2,12.8 C6.7,12.8 7.1,12.7 7.4,12.5 C7.7,12.3 8,12.1 8.2,11.7 C8.4,11.4 8.5,11 8.6,10.6 C8.7,10.2 8.7,9.8 8.7,9.3 C8.6,8.9 8.6,8.4 8.5,8 Z" id="Shape"></path>
                            <path d="M12.8,2.4 L12.8,0 L15.7,0 L15.7,2.4 L12.8,2.4 L12.8,2.4 Z M15.7,4 L15.7,14.6 L12.8,14.6 L12.8,4 L15.7,4 Z" id="Shape"></path>
                            <path d="M27.1,15.4 C27,15.9 26.7,16.5 26.4,16.9 C26,17.4 25.5,17.8 24.7,18.1 C24,18.4 23,18.6 21.8,18.6 C21.3,18.6 20.8,18.5 20.2,18.4 C19.6,18.3 19.2,18.1 18.7,17.8 C18.3,17.5 17.9,17.2 17.6,16.7 C17.3,16.3 17.1,15.8 17.1,15.2 L20,15.2 C20.1,15.7 20.4,16.1 20.8,16.3 C21.2,16.5 21.7,16.6 22.2,16.6 C23,16.6 23.6,16.4 24,15.9 C24.4,15.4 24.6,14.8 24.5,14 L24.5,12.6 L24.5,12.6 C24.2,13.2 23.7,13.6 23.2,13.8 C22.6,14.1 22,14.2 21.4,14.2 C20.6,14.2 19.9,14.1 19.4,13.8 C18.9,13.5 18.4,13.1 18,12.7 C17.6,12.2 17.4,11.6 17.2,11 C17,10.4 16.7,9.7 16.7,9 C16.7,8.3 16.8,7.7 17,7 C17.2,6.4 17.5,5.8 17.9,5.3 C18.3,4.8 18.8,4.4 19.3,4.1 C19.8,3.8 20.5,3.7 21.3,3.7 C22,3.7 22.6,3.8 23.1,4.1 C23.6,4.4 24.1,4.8 24.4,5.4 L24.4,5.4 L24.4,4 L27.2,4 L27.2,14 C27.3,14.4 27.2,14.9 27.1,15.4 Z M23.1,11.9 C23.4,11.7 23.7,11.5 23.9,11.2 C24.1,10.9 24.3,10.6 24.4,10.3 C24.5,10 24.6,9.6 24.6,9.2 C24.6,8.8 24.6,8.3 24.5,8 C24.4,7.6 24.3,7.3 24.1,7 C23.9,6.7 23.7,6.5 23.3,6.3 C22.9,6.1 22.5,5.9 22,5.9 C21.6,5.9 21.2,6 20.9,6.1 C20.6,6.3 20.4,6.5 20.2,6.8 C20,7.1 19.9,7.4 19.8,7.8 C19.7,8.2 19.7,8.5 19.7,8.9 C19.7,9.3 19.7,9.7 19.8,10 C19.9,10.3 20,10.7 20.2,11 C20.4,11.3 20.6,11.5 20.9,11.7 C21.2,11.9 21.6,12 22,12 C22.4,12.1 22.8,12.1 23.1,11.9 Z" id="Shape"></path>
                            <path d="M28.8,2.4 L28.8,0 L31.7,0 L31.7,2.4 L28.8,2.4 L28.8,2.4 Z M31.7,4 L31.7,14.6 L28.8,14.6 L28.8,4 L31.7,4 Z" id="Shape"></path>
                            <path d="M38.9,4 L38.9,6 L36.8,6 L36.8,11.2 C36.8,11.7 36.9,12 37,12.2 C37.1,12.4 37.5,12.4 38,12.4 C38.2,12.4 38.3,12.4 38.5,12.4 C38.7,12.4 38.8,12.4 38.9,12.3 L38.9,14.6 C38.7,14.6 38.4,14.7 38.1,14.7 C37.8,14.7 37.5,14.7 37.2,14.7 C36.7,14.7 36.3,14.7 35.9,14.6 C35.5,14.5 35.1,14.4 34.8,14.2 C34.5,14 34.3,13.8 34.1,13.4 C33.9,13 33.8,12.6 33.8,12.1 L33.8,6 L32,6 L32,4 L33.8,4 L33.8,0.9 L36.7,0.9 L36.7,4 L38.9,4 Z" id="Path"></path>
                            <path d="M39.7,5.6 C40,5.1 40.4,4.8 40.8,4.5 C41.2,4.2 41.8,4 42.4,3.9 C43,3.8 43.6,3.7 44.2,3.7 C44.7,3.7 45.3,3.7 45.8,3.8 C46.3,3.9 46.8,4 47.3,4.2 C47.8,4.4 48.1,4.7 48.4,5.1 C48.7,5.5 48.8,6 48.8,6.6 L48.8,12.1 C48.8,12.6 48.8,13 48.9,13.5 C49,14 49.1,14.3 49.2,14.5 L46.2,14.5 C46.1,14.3 46.1,14.2 46.1,14 C46.1,13.8 46,13.7 46,13.5 C45.5,14 45,14.3 44.4,14.5 C43.8,14.7 43.1,14.8 42.5,14.8 C42,14.8 41.5,14.7 41.1,14.6 C40.7,14.5 40.3,14.3 40,14 C39.7,13.7 39.4,13.4 39.2,13 C39,12.6 38.9,12.1 38.9,11.6 C38.9,11 39,10.5 39.2,10.1 C39.4,9.7 39.7,9.4 40,9.2 C40.3,9 40.7,8.8 41.1,8.7 C41.5,8.6 42,8.5 42.4,8.4 C42.8,8.3 43.3,8.3 43.7,8.2 C44.1,8.2 44.5,8.1 44.8,8 C45.1,7.9 45.4,7.8 45.6,7.6 C45.8,7.4 45.9,7.2 45.9,6.9 C45.9,6.6 45.8,6.3 45.7,6.2 C45.6,6 45.5,5.9 45.3,5.8 C45.1,5.7 45,5.8 44.8,5.8 C44.6,5.8 44.3,5.7 44.1,5.7 C43.5,5.7 43.1,5.8 42.7,6.1 C42.4,6.3 42.2,6.8 42.1,7.3 L39.2,7.3 C39.3,6.6 39.4,6 39.7,5.6 Z M45.5,9.7 C45.3,9.8 45.1,9.8 44.9,9.9 C44.7,10 44.5,10 44.2,10 C44,10 43.7,10.1 43.5,10.1 C43.3,10.1 43.1,10.2 42.9,10.3 C42.7,10.4 42.5,10.5 42.3,10.6 C42.1,10.7 42,10.9 41.9,11 C41.8,11.2 41.8,11.4 41.8,11.7 C41.8,12 41.8,12.2 41.9,12.4 C42,12.6 42.1,12.7 42.3,12.8 C42.5,12.9 42.7,13 42.9,13 C43.1,13 43.3,13.1 43.6,13.1 C44.2,13.1 44.6,13 44.9,12.8 C45.2,12.6 45.4,12.4 45.6,12.1 C45.8,11.8 45.8,11.6 45.9,11.3 C45.9,11 46,10.8 46,10.6 L46,9.5 C45.8,9.6 45.7,9.6 45.5,9.7 Z" id="Shape"></path>
                            <polygon id="Path" points="53.2 0 53.2 14.6 50.3 14.6 50.3 0"></polygon>
                            <path d="M3.9,22 L3.9,24 L3.9,24 C4,23.7 4.2,23.4 4.5,23.1 C4.7,22.8 5,22.6 5.3,22.4 C5.6,22.2 5.9,22 6.3,21.9 C6.6,21.8 7,21.7 7.4,21.7 C7.6,21.7 7.8,21.7 8,21.8 L8,24.5 C7.9,24.5 7.7,24.4 7.5,24.4 C7.3,24.4 7.1,24.4 6.9,24.4 C6.4,24.4 5.9,24.5 5.5,24.7 C5.1,24.9 4.8,25.1 4.6,25.4 C4.4,25.7 4.2,26.1 4.1,26.5 C4.1,26.9 4,27.4 4,27.9 L4,32.7 L1.1,32.7 L1.1,22 L3.9,22 Z" id="Path"></path>
                            <path d="M10.9,30.1 C11.3,30.5 12,30.7 12.8,30.7 C13.4,30.7 13.9,30.6 14.3,30.3 C14.7,30 15,29.7 15.1,29.4 L17.7,29.4 C17.3,30.7 16.7,31.6 15.8,32.1 C15,32.6 13.9,32.9 12.7,32.9 C11.9,32.9 11.1,32.8 10.4,32.5 C9.7,32.2 9.2,31.9 8.7,31.4 C8.2,30.9 7.9,30.3 7.6,29.6 C7.3,28.9 7.2,28.2 7.2,27.3 C7.2,26.5 7.3,25.8 7.6,25.1 C7.9,24.4 8.2,23.8 8.7,23.3 C9.2,22.8 9.7,22.4 10.4,22.1 C11.1,21.8 11.8,21.7 12.6,21.7 C13.5,21.7 14.3,21.9 15,22.2 C15.7,22.5 16.2,23 16.6,23.6 C17,24.2 17.3,24.9 17.5,25.6 C17.7,26.4 17.8,27.1 17.7,28 L10.1,28 C10.2,29 10.5,29.7 10.9,30.1 Z M14.2,24.5 C13.9,24.1 13.3,23.9 12.6,23.9 C12.1,23.9 11.7,24 11.4,24.1 C11.1,24.2 10.8,24.5 10.7,24.7 C10.5,24.9 10.4,25.2 10.3,25.4 C10.2,25.6 10.2,25.9 10.2,26.1 L14.9,26.1 C14.8,25.5 14.5,24.9 14.2,24.5 Z" id="Shape"></path>
                            <path d="M21.4,22 L21.4,23.4 L21.4,23.4 C21.8,22.8 22.2,22.4 22.8,22.2 C23.4,22 23.9,21.8 24.6,21.8 C25.4,21.8 26.2,22 26.8,22.3 C27.4,22.6 27.9,23 28.3,23.5 C28.7,24 29,24.6 29.2,25.3 C29.4,26 29.5,26.7 29.5,27.5 C29.5,28.2 29.4,28.9 29.2,29.5 C29,30.1 28.7,30.7 28.3,31.2 C27.9,31.7 27.4,32.1 26.8,32.4 C26.2,32.7 25.5,32.9 24.8,32.9 C24.1,32.9 23.5,32.8 23,32.5 C22.4,32.2 22,31.8 21.6,31.3 L21.6,31.3 L21.6,36.3 L18.7,36.3 L18.7,22 L21.4,22 Z M25.2,30.4 C25.5,30.2 25.8,30 26,29.7 C26.2,29.4 26.3,29 26.4,28.6 C26.5,28.2 26.5,27.8 26.5,27.4 C26.5,27 26.5,26.6 26.4,26.1 C26.3,25.6 26.2,25.3 26,25 C25.8,24.7 25.5,24.4 25.2,24.2 C24.9,24 24.5,23.9 24,23.9 C23.5,23.9 23.1,24 22.8,24.2 C22.5,24.4 22.2,24.7 22,25 C21.8,25.3 21.7,25.7 21.6,26.1 C21.5,26.5 21.5,26.9 21.5,27.4 C21.5,27.8 21.5,28.2 21.6,28.6 C21.7,29 21.8,29.4 22,29.7 C22.2,30 22.5,30.3 22.8,30.4 C23.1,30.5 23.5,30.7 24,30.7 C24.5,30.7 24.9,30.6 25.2,30.4 Z" id="Shape"></path>
                            <path d="M30.3,25 C30.6,24.3 30.9,23.7 31.4,23.2 C31.9,22.7 32.5,22.3 33.1,22.1 C33.8,21.8 34.5,21.7 35.4,21.7 C36.2,21.7 37,21.8 37.7,22.1 C38.4,22.4 39,22.7 39.4,23.2 C39.9,23.7 40.2,24.3 40.5,25 C40.8,25.7 40.9,26.5 40.9,27.3 C40.9,28.1 40.8,28.9 40.5,29.6 C40.2,30.3 39.9,30.9 39.4,31.4 C38.9,31.9 38.3,32.3 37.7,32.5 C37.1,32.7 36.3,32.9 35.4,32.9 C34.6,32.9 33.8,32.8 33.1,32.5 C32.4,32.2 31.9,31.9 31.4,31.4 C30.9,30.9 30.6,30.3 30.3,29.6 C30,28.9 29.9,28.2 29.9,27.3 C29.9,26.5 30,25.7 30.3,25 Z M32.9,28.6 C33,29 33.1,29.4 33.3,29.7 C33.5,30 33.8,30.3 34.1,30.5 C34.4,30.7 34.8,30.8 35.3,30.8 C35.8,30.8 36.2,30.7 36.5,30.5 C36.8,30.3 37.1,30.1 37.3,29.7 C37.5,29.4 37.6,29 37.7,28.6 C37.8,28.2 37.8,27.8 37.8,27.4 C37.8,27 37.8,26.6 37.7,26.2 C37.6,25.8 37.5,25.4 37.3,25.1 C37.1,24.8 36.8,24.5 36.5,24.3 C36.2,24.1 35.8,24 35.3,24 C34.8,24 34.4,24.1 34.1,24.3 C33.8,24.5 33.5,24.8 33.3,25.1 C33.1,25.4 33,25.8 32.9,26.2 C32.8,26.6 32.8,27 32.8,27.4 C32.8,27.8 32.9,28.2 32.9,28.6 Z" id="Shape"></path>
                            <path d="M44.6,22 L44.6,24 L44.6,24 C44.7,23.7 44.9,23.4 45.2,23.1 C45.4,22.8 45.7,22.6 46,22.4 C46.3,22.2 46.6,22 47,21.9 C47.3,21.8 47.7,21.7 48.1,21.7 C48.3,21.7 48.5,21.7 48.7,21.8 L48.7,24.5 C48.6,24.5 48.4,24.4 48.2,24.4 C48,24.4 47.8,24.4 47.6,24.4 C47.1,24.4 46.6,24.5 46.2,24.7 C45.8,24.9 45.5,25.1 45.3,25.4 C45.1,25.7 44.9,26.1 44.8,26.5 C44.7,26.9 44.7,27.4 44.7,27.8 L44.7,32.6 L41.8,32.6 L41.8,22 L44.6,22 Z" id="Path"></path>
                            <path d="M54.7,22 L54.7,24 L52.6,24 L52.6,29.2 C52.6,29.7 52.7,30 52.8,30.2 C52.9,30.4 53.3,30.4 53.8,30.4 C54,30.4 54.1,30.4 54.3,30.4 C54.5,30.4 54.6,30.4 54.7,30.3 L54.7,32.6 C54.5,32.6 54.2,32.7 53.9,32.7 C53.6,32.7 53.3,32.7 53,32.7 C52.5,32.7 52.1,32.7 51.7,32.6 C51.3,32.5 50.9,32.4 50.6,32.2 C50.3,32 50.1,31.8 49.9,31.4 C49.7,31.1 49.6,30.6 49.6,30.1 L49.6,24 L47.8,24 L47.8,22 L49.6,22 L49.6,18.8 L52.5,18.8 L52.5,22 L54.7,22 L54.7,22 Z" id="Path"></path>
                            <path d="M55.3,20.4 L55.3,18 L58.2,18 L58.2,20.4 L55.3,20.4 Z M58.2,22 L58.2,32.6 L55.3,32.6 L55.3,22 L58.2,22 Z" id="Shape"></path>
                            <path d="M62.3,22 L62.3,23.5 L62.4,23.5 C62.8,22.9 63.2,22.4 63.8,22.2 C64.4,21.9 65,21.8 65.6,21.8 C66.4,21.8 67,21.9 67.5,22.1 C68,22.3 68.4,22.6 68.7,23 C69,23.4 69.2,23.8 69.3,24.4 C69.4,24.9 69.5,25.5 69.5,26.2 L69.5,32.7 L66.6,32.7 L66.6,26.7 C66.6,25.8 66.5,25.2 66.2,24.7 C65.9,24.3 65.4,24.1 64.7,24.1 C63.9,24.1 63.3,24.3 63,24.8 C62.6,25.3 62.5,26 62.5,27.1 L62.5,32.7 L59.6,32.7 L59.6,22 L62.3,22 Z" id="Path"></path>
                            <path d="M80.8,33.4 C80.7,33.9 80.4,34.5 80.1,34.9 C79.8,35.3 79.2,35.8 78.4,36.1 C77.7,36.4 76.7,36.6 75.5,36.6 C75,36.6 74.5,36.5 73.9,36.4 C73.4,36.3 72.9,36.1 72.4,35.8 C71.9,35.5 71.6,35.2 71.3,34.7 C71,34.2 70.8,33.8 70.8,33.2 L73.7,33.2 C73.8,33.7 74.1,34.1 74.5,34.3 C74.9,34.5 75.4,34.6 75.9,34.6 C76.7,34.6 77.3,34.4 77.7,33.9 C78.1,33.4 78.3,32.8 78.2,32 L78.2,30.6 L78.2,30.6 C77.9,31.2 77.4,31.6 76.9,31.8 C76.3,32.1 75.7,32.2 75.1,32.2 C74.3,32.2 73.6,32.1 73,31.8 C72.4,31.5 72,31.1 71.6,30.7 C71.2,30.3 71,29.6 70.8,29 C70.6,28.4 70.5,27.7 70.5,26.9 C70.5,26.2 70.6,25.6 70.8,24.9 C71,24.2 71.3,23.7 71.7,23.2 C72.1,22.7 72.6,22.3 73.1,22 C73.6,21.7 74.3,21.6 75.1,21.6 C75.8,21.6 76.4,21.7 76.9,22 C77.4,22.3 77.9,22.7 78.2,23.3 L78.2,23.3 L78.2,22 L81,22 L81,32 C81,32.4 80.9,32.9 80.8,33.4 Z M76.8,29.9 C77.1,29.7 77.4,29.5 77.6,29.2 C77.8,28.9 78,28.6 78.1,28.3 C78.2,28 78.3,27.6 78.3,27.2 C78.3,26.8 78.3,26.3 78.2,26 C78.1,25.7 78,25.3 77.8,25 C77.6,24.7 77.4,24.5 77,24.3 C76.6,24.1 76.3,24 75.8,24 C75.4,24 75,24.1 74.7,24.2 C74.4,24.4 74.2,24.6 74,24.9 C73.8,25.2 73.7,25.5 73.6,25.9 C73.5,26.3 73.5,26.6 73.5,27 C73.5,27.4 73.5,27.8 73.6,28.1 C73.7,28.5 73.8,28.8 74,29.1 C74.2,29.4 74.4,29.6 74.7,29.8 C75,30 75.4,30.1 75.8,30.1 C76.1,30.1 76.5,30.1 76.8,29.9 Z" id="Shape"></path>
                            <path d="M4.2,48.1 C4.6,48.5 5.3,48.7 6.1,48.7 C6.7,48.7 7.2,48.6 7.6,48.3 C8,48 8.3,47.7 8.4,47.4 L11,47.4 C10.6,48.7 10,49.6 9.1,50.1 C8.3,50.6 7.2,50.9 6,50.9 C5.2,50.9 4.4,50.8 3.7,50.5 C3,50.2 2.5,49.9 2,49.4 C1.5,48.9 1.2,48.3 0.9,47.6 C0.6,46.9 0.5,46.2 0.5,45.3 C0.5,44.5 0.6,43.8 0.9,43.1 C1.2,42.4 1.5,41.8 2,41.3 C2.5,40.8 3,40.4 3.7,40.1 C4.4,39.8 5.1,39.7 5.9,39.7 C6.8,39.7 7.6,39.9 8.3,40.2 C9,40.5 9.5,41 9.9,41.6 C10.3,42.2 10.6,42.9 10.8,43.6 C11,44.3 11.1,45.1 11,46 L3.5,46 C3.5,47 3.8,47.7 4.2,48.1 Z M7.5,42.5 C7.2,42.1 6.6,41.9 5.9,41.9 C5.4,41.9 5,42 4.7,42.1 C4.4,42.3 4.1,42.5 4,42.7 C3.9,42.9 3.7,43.2 3.6,43.4 C3.5,43.6 3.5,44 3.5,44.2 L8.2,44.2 C8.1,43.5 7.9,42.9 7.5,42.5 Z" id="Shape"></path>
                            <polygon id="Path" points="14.6 50.6 10.9 40 14 40 16.2 47.2 16.2 47.2 18.4 40 21.3 40 17.7 50.6"></polygon>
                            <path d="M21.8,43 C22.1,42.3 22.4,41.7 22.9,41.2 C23.4,40.7 24,40.3 24.6,40.1 C25.3,39.8 26,39.7 26.9,39.7 C27.7,39.7 28.5,39.8 29.2,40.1 C29.9,40.4 30.5,40.7 30.9,41.2 C31.3,41.7 31.7,42.3 32,43 C32.3,43.7 32.4,44.5 32.4,45.3 C32.4,46.1 32.3,46.9 32,47.6 C31.7,48.3 31.4,48.9 30.9,49.4 C30.4,49.9 29.8,50.3 29.2,50.5 C28.6,50.7 27.8,50.9 26.9,50.9 C26.1,50.9 25.3,50.8 24.6,50.5 C23.9,50.2 23.4,49.9 22.9,49.4 C22.4,48.9 22.1,48.3 21.8,47.6 C21.5,46.9 21.4,46.2 21.4,45.3 C21.4,44.5 21.5,43.7 21.8,43 Z M24.4,46.6 C24.5,47 24.6,47.4 24.8,47.7 C25,48 25.3,48.3 25.6,48.5 C25.9,48.7 26.3,48.8 26.8,48.8 C27.3,48.8 27.7,48.7 28,48.5 C28.3,48.3 28.6,48.1 28.8,47.7 C29,47.4 29.1,47 29.2,46.6 C29.3,46.2 29.3,45.8 29.3,45.4 C29.3,45 29.3,44.6 29.2,44.2 C29.1,43.8 29,43.4 28.8,43.1 C28.6,42.8 28.3,42.5 28,42.3 C27.7,42.1 27.3,42 26.8,42 C26.3,42 25.9,42.1 25.6,42.3 C25.3,42.5 25,42.8 24.8,43.1 C24.6,43.4 24.5,43.8 24.4,44.2 C24.3,44.6 24.3,45 24.3,45.4 C24.3,45.8 24.3,46.2 24.4,46.6 Z" id="Shape"></path>
                            <polygon id="Path" points="36.3 36 36.3 50.6 33.4 50.6 33.4 36"></polygon>
                            <polygon id="Path" points="40.3 50.6 36.7 40 39.8 40 42 47.2 42 47.2 44.2 40 47.1 40 43.5 50.6"></polygon>
                            <path d="M50.5,48.1 C50.9,48.5 51.6,48.7 52.4,48.7 C53,48.7 53.5,48.6 53.9,48.3 C54.3,48 54.6,47.7 54.7,47.4 L57.3,47.4 C56.9,48.7 56.3,49.6 55.4,50.1 C54.6,50.6 53.5,50.9 52.3,50.9 C51.5,50.9 50.7,50.8 50,50.5 C49.3,50.2 48.8,49.9 48.3,49.4 C47.8,48.9 47.5,48.3 47.2,47.6 C46.9,46.9 46.8,46.2 46.8,45.3 C46.8,44.5 46.9,43.8 47.2,43.1 C47.5,42.4 47.8,41.8 48.3,41.3 C48.8,40.8 49.3,40.4 50,40.1 C50.7,39.8 51.4,39.7 52.2,39.7 C53.1,39.7 53.9,39.9 54.6,40.2 C55.3,40.5 55.8,41 56.3,41.6 C56.7,42.2 57,42.9 57.2,43.6 C57.4,44.3 57.5,45.1 57.4,46 L49.8,46 C49.8,47 50.1,47.7 50.5,48.1 Z M53.8,42.5 C53.5,42.1 52.9,41.9 52.2,41.9 C51.7,41.9 51.3,42 51,42.1 C50.7,42.3 50.4,42.5 50.3,42.7 C50.2,42.9 50,43.2 49.9,43.4 C49.8,43.6 49.8,43.9 49.8,44.1 L54.5,44.1 C54.4,43.5 54.2,42.9 53.8,42.5 Z" id="Shape"></path>
                            <path d="M65.8,49.3 C65.5,49.9 65,50.3 64.5,50.5 C63.9,50.8 63.3,50.9 62.6,50.9 C61.8,50.9 61.1,50.7 60.5,50.4 C59.9,50.1 59.4,49.7 59,49.1 C58.6,48.6 58.3,48 58.1,47.3 C57.9,46.6 57.8,45.9 57.8,45.2 C57.8,44.5 57.9,43.8 58.1,43.1 C58.3,42.4 58.6,41.9 59,41.3 C59.4,40.7 59.9,40.4 60.5,40.1 C61.1,39.8 61.8,39.6 62.5,39.6 C63.1,39.6 63.7,39.7 64.3,40 C64.9,40.3 65.3,40.7 65.6,41.2 L65.6,41.2 L65.6,36 L68.5,36 L68.5,50.6 L65.7,50.6 L65.8,49.3 L65.8,49.3 Z M65.6,44 C65.5,43.6 65.4,43.2 65.2,42.9 C65,42.6 64.7,42.3 64.4,42.2 C64.1,42.1 63.7,41.9 63.2,41.9 C62.7,41.9 62.3,42 62,42.2 C61.7,42.4 61.4,42.6 61.2,43 C61,43.4 60.9,43.7 60.8,44.1 C60.7,44.5 60.7,44.9 60.7,45.4 C60.7,45.8 60.7,46.2 60.8,46.6 C60.9,47 61,47.4 61.3,47.7 C61.5,48 61.8,48.3 62.1,48.5 C62.4,48.7 62.8,48.8 63.3,48.8 C63.8,48.8 64.2,48.7 64.5,48.5 C64.8,48.3 65.1,48.1 65.3,47.7 C65.5,47.4 65.6,47 65.7,46.6 C65.8,46.2 65.8,45.8 65.8,45.3 C65.8,44.8 65.7,44.4 65.6,44 Z" id="Shape"></path>
                            <polygon id="Path" points="73.2 47.5 73.2 50.7 70 50.7 70 47.5"></polygon>
                        </g>
                    </g>
                </g>
            </g>
        </g>
    </g>
</svg>